<svg width="50" height="50" viewBox="0 0 50 50" fill="none" xmlns="http://www.w3.org/2000/svg">
<path d="M0.510311 28.7545L5.09269 31.4622L6.35285 34.5033L5.03021 39.6584C4.93648 40.0125 5.04062 40.3979 5.30098 40.6582L9.34181 44.6991C9.60217 44.9594 9.98751 45.0636 10.3416 44.9698L15.4968 43.6472L18.5378 44.9073L21.2456 49.4897C21.4331 49.8022 21.7767 50 22.1412 50H27.8588C28.2233 50 28.567 49.8022 28.7545 49.4897L31.4622 44.9073L34.5033 43.6472L39.6584 44.9698C40.0125 45.0636 40.3979 44.9594 40.6582 44.6991L44.6991 40.6582C44.9594 40.3979 45.0636 40.0229 44.9698 39.6584L43.6472 34.5033L44.9073 31.4622L49.4897 28.7545C49.8022 28.567 50 28.2233 50 27.8588V22.1412C50 21.7767 49.8022 21.4331 49.4897 21.2456L44.9073 18.5378L43.6472 15.4968L44.9698 10.3416C45.0636 9.98751 44.9594 9.60217 44.6991 9.34181L40.6582 5.30098C40.3979 5.04062 40.0125 4.93648 39.6584 5.03021L34.5033 6.35285L31.4622 5.09269L28.7545 0.510311C28.567 0.197875 28.2233 0 27.8588 0H22.1412C21.7767 0 21.4331 0.197875 21.2456 0.510311L18.5378 5.09269L15.4968 6.35285L10.3416 5.03021C9.98751 4.93648 9.60217 5.04062 9.34181 5.30098L5.30098 9.34181C5.04062 9.60217 4.93648 9.9771 5.03021 10.3416L6.35285 15.4968L5.09269 18.5378L0.510311 21.2456C0.197875 21.4226 0 21.7663 0 22.1308V27.8484C0 28.2233 0.197875 28.567 0.510311 28.7545ZM2.0829 22.7349L6.44658 20.1521C6.64445 20.0375 6.79026 19.8605 6.88399 19.6522L8.41492 15.9654C8.49824 15.7571 8.51907 15.528 8.45658 15.3093L7.19642 10.3937L10.4041 7.18601L15.3197 8.44616C15.5384 8.50865 15.7676 8.48782 15.9759 8.40451L19.6626 6.87357C19.8709 6.79026 20.0479 6.63404 20.1625 6.43617L22.7349 2.0829H27.2652L29.848 6.44658C29.9625 6.64445 30.1396 6.79026 30.3479 6.88399L34.0346 8.41492C34.2429 8.49824 34.472 8.51907 34.6907 8.45658L39.6064 7.19642L42.814 10.4041L41.5539 15.3197C41.5018 15.5384 41.5122 15.7676 41.5955 15.9759L43.1265 19.6626C43.2098 19.8709 43.366 20.0479 43.5639 20.1625L47.9067 22.7349V27.2652L43.5431 29.848C43.3452 29.9625 43.1994 30.1396 43.1056 30.3479L41.5747 34.0346C41.4914 34.2429 41.4706 34.472 41.5331 34.6907L42.7932 39.6064L39.5855 42.814L34.6699 41.5539C34.4512 41.4914 34.2221 41.5122 34.0138 41.5955L30.327 43.1265C30.1188 43.2098 29.9417 43.366 29.8271 43.5639L27.2548 47.9067H22.7245L20.1417 43.5431C20.0271 43.3452 19.85 43.1994 19.6418 43.1056L15.955 41.5747C15.7467 41.4914 15.5176 41.4706 15.2989 41.5331L10.3833 42.7932L7.1756 39.5855L8.43575 34.6699C8.48782 34.4512 8.47741 34.2221 8.39409 34.0138L6.86316 30.327C6.77984 30.1188 6.62363 29.9417 6.42575 29.8271L2.0829 27.2548V22.7349Z" fill="#BD96FF"/>
<path d="M18.7465 38.44H31.2439C31.8167 38.44 32.2854 37.9713 32.2854 37.3985V33.2327C32.2854 33.1806 32.2646 33.139 32.2541 33.0869C32.2437 33.014 32.2333 32.9411 32.2125 32.8682C32.1917 32.8057 32.15 32.7536 32.1188 32.7016C32.0875 32.6391 32.0563 32.587 32.0042 32.5349C31.9521 32.4829 31.8896 32.4412 31.8272 32.3996C31.7855 32.3683 31.7542 32.3267 31.7126 32.3058C30.3483 31.6289 28.6716 29.3585 28.2133 22.5995C29.3693 22.1413 30.2025 21.0165 30.2025 19.6939C30.2025 18.4441 29.4631 17.3714 28.4008 16.8715C28.8798 16.1946 29.161 15.3718 29.161 14.4866C29.161 12.185 27.2968 10.3208 24.9952 10.3208C22.6936 10.3208 20.8294 12.185 20.8294 14.4866C20.8294 15.3718 21.1106 16.1946 21.5897 16.8715C20.5274 17.3714 19.788 18.4441 19.788 19.6939C19.788 21.0165 20.6107 22.1309 21.7667 22.5891C21.4022 28.0255 20.1837 31.4518 18.3299 32.2746C18.2883 32.2954 18.2675 32.3267 18.2258 32.3475C18.1425 32.3996 18.0696 32.4412 17.9967 32.5037C17.9446 32.5558 17.9238 32.6078 17.8821 32.6703C17.8405 32.7224 17.7988 32.7745 17.778 32.837C17.7467 32.9203 17.7363 33.014 17.7259 33.0973C17.7259 33.1494 17.7051 33.1911 17.7051 33.2327V37.3985C17.7051 37.9713 18.1737 38.44 18.7465 38.44ZM22.9123 18.6524H27.0781C27.6509 18.6524 28.1196 19.1211 28.1196 19.6939C28.1196 20.2667 27.6509 20.7353 27.0781 20.7353H22.9123C22.3395 20.7353 21.8709 20.2667 21.8709 19.6939C21.8709 19.1211 22.3395 18.6524 22.9123 18.6524ZM26.1408 22.8182C26.4324 27.1298 27.2448 30.2333 28.5987 32.1913H21.4543C22.7561 30.2646 23.5476 27.1506 23.8392 22.8182H26.1408ZM30.2025 36.3571H19.788V34.2742H30.2025V36.3571ZM24.9952 12.4037C26.1408 12.4037 27.0781 13.341 27.0781 14.4866C27.0781 15.6322 26.1408 16.5695 24.9952 16.5695C23.8496 16.5695 22.9123 15.6322 22.9123 14.4866C22.9123 13.341 23.8496 12.4037 24.9952 12.4037Z" fill="#BD96FF"/>
</svg>
